<svg xmlns="http://www.w3.org/2000/svg" width="64" height="64" viewBox="0 0 64 64">
  <defs>
    <linearGradient id="grad" x1="0%" y1="0%" x2="100%" y2="100%">
      <stop offset="0%" style="stop-color:#ef4444"/>
      <stop offset="100%" style="stop-color:#991b1b"/>
    </linearGradient>
    <clipPath id="clip">
      <rect x="4" y="8" width="56" height="48" rx="4"/>
    </clipPath>
  </defs>
  <rect x="4" y="8" width="56" height="48" rx="4" fill="url(#grad)"/>
  <g clip-path="url(#clip)">
    <path d="M12 20 L20 14 L28 20 L36 14 L44 20 L52 14" stroke="#fecaca" stroke-width="2" fill="none"/>
    <path d="M12 32 L20 26 L28 32 L36 26 L44 32 L52 26" stroke="#fecaca" stroke-width="2" fill="none"/>
    <path d="M12 44 L20 38 L28 44 L36 38 L44 44 L52 38" stroke="#fecaca" stroke-width="2" fill="none"/>
    <circle cx="22" cy="26" r="3" fill="#fef2f2"/>
    <circle cx="38" cy="38" r="3" fill="#fef2f2"/>
    <circle cx="46" cy="22" r="3" fill="#fef2f2"/>
  </g>
  <circle cx="32" cy="14" r="4" fill="#fef2f2"/>
  <polygon points="32,10 34,16 30,16" fill="#fef2f2"/>
</svg>